<?xml version="1.0" encoding="utf-8"?>
<!-- Generator: Adobe Illustrator 27.0.1, SVG Export Plug-In . SVG Version: 6.00 Build 0)  -->
<svg version="1.1" id="Capa_1" xmlns="http://www.w3.org/2000/svg" xmlns:xlink="http://www.w3.org/1999/xlink" x="0px" y="0px"
	 viewBox="0 0 1366 768" style="enable-background:new 0 0 1366 768;" xml:space="preserve">

<style type="text/css">
	.st0{fill:#0D6EFD;}
	.st1{fill:#FFFFFF;}
	.st2{font-family:'Ubuntu-Medium';}
	.st3{font-size:313.0321px;}
	.st4{letter-spacing:15;}
	.st5{font-family:'Ubuntu-Light';}
	.st6{font-size:144.4764px;}
</style>
 
<g>
	<path class="st0" d="M331.45,342.27v84.52h-39.44v-85.15c-14.4-22.12-27.91-44.08-40.54-65.89
		c-12.63-21.81-24.78-43.77-36.47-65.89h43.82c7.31,16.28,15.45,32.45,24.42,48.52c8.97,16.07,18.15,31.93,27.55,47.58"/>
</g>
 
<text transform="matrix(1 0 0 1 385.7749 422.4072)" class="st1 st2 st3 st4">endo</text>
<text transform="matrix(1 0 0 1 273.2251 590.0332)" class="st1 st5 st6 st4">BARILOCHE</text>
<polyline class="st0" points="1107.09,235.3 1102.72,163.97 1077.03,206.06 "/>
<polyline class="st0" points="1107.09,235.3 1038.6,216.96 1074.79,195.27 "/>
<g>
	<g>
		<path class="st0" d="M1092.86,190.39c-26.65-25.39-56.72-48.04-91.79-60.22c-26.53-9.21-54.33-10.12-81.88-6.04
			c-25.38,3.75-49.82,12.08-74.18,19.84c-28.74,9.15-57.52,16.9-87.36,21.55c-2.09,0.33-4.19,0.64-6.28,0.95
			c-1.06,0.16-8.05,1.34-2.68,0.4c-4.25,0.74-8.62,1.1-12.91,1.57c-7.8,0.86-15.61,1.54-23.44,2.04
			c-13.69,0.87-27.41,1.15-41.13,0.91c-25.32-0.44-50.56-2.62-75.85-3.7c-31.18-1.33-62.35-0.64-93.43,2.3
			c-19.89,1.88-40.08,3.85-59.54,8.56c-15.57,3.77-30.81,9.45-45,16.9c-25.13,13.2-45.89,32.86-62.09,56
			c-13.93,19.91-23.77,42.42-32.12,65.14c-1.83,4.99-3.58,10-5.29,15.03c-2.95,8.67,3.38,19.51,12.22,21.53
			c9.71,2.21,18.36-2.94,21.53-12.22c3.48-10.23,7.14-20.41,11.28-30.4c1.68-4.05-1.59,3.69,0.11-0.24
			c0.53-1.23,1.07-2.46,1.62-3.68c1.22-2.72,2.47-5.41,3.77-8.09c2.52-5.18,5.21-10.28,8.11-15.27c2.95-5.07,6.1-10.02,9.49-14.81
			c0.82-1.15,1.64-2.3,2.49-3.43c0.51-0.68,1.04-1.35,1.54-2.04c-0.04,0.06-2.86,3.62-1.17,1.52c1.98-2.46,3.97-4.89,6.07-7.26
			c4.08-4.6,8.42-8.98,13.01-13.07c2.24-2,4.56-3.91,6.9-5.8c2.59-2.09-2.89,2.11-1.01,0.78c0.62-0.44,1.23-0.92,1.85-1.37
			c1.5-1.1,3.02-2.17,4.56-3.21c5.59-3.79,11.43-7.2,17.47-10.23c3.02-1.51,6.17-2.76,9.19-4.26c-5.07,2.52,0.44-0.13,1.62-0.58
			c1.99-0.76,4-1.49,6.02-2.19c7.48-2.56,15.13-4.64,22.87-6.28c3.95-0.84,7.93-1.57,11.93-2.19c0.82-0.13,1.65-0.24,2.47-0.37
			c4.35-0.69-4.13,0.52,0.81-0.12c2.9-0.38,5.81-0.75,8.71-1.1c32.48-3.93,65.16-5.8,97.88-5.06c25.04,0.56,50,2.66,75.02,3.72
			c27.62,1.17,55.21,0.51,82.7-2.56c32.46-3.63,64.4-9.55,95.71-18.87c24.86-7.4,49.32-16.33,74.57-22.38
			c5.92-1.42,11.88-2.66,17.88-3.65c1.42-0.23,2.84-0.44,4.25-0.66c2.75-0.42-2.07,0.27-2.1,0.28c0.85-0.09,1.7-0.22,2.56-0.32
			c3.12-0.36,6.25-0.65,9.39-0.84c6.02-0.38,12.06-0.42,18.08-0.09c2.91,0.16,5.82,0.41,8.72,0.75c0.58,0.07,1.17,0.16,1.75,0.22
			c-5.82-0.59-2.44-0.33-1.13-0.12c1.78,0.28,3.55,0.59,5.31,0.93c6.26,1.22,12.43,2.87,18.48,4.9c3.23,1.09,6.43,2.71,9.69,3.63
			c-0.25-0.07-4.04-1.76-1.38-0.58c0.94,0.42,1.88,0.83,2.82,1.25c1.75,0.8,3.49,1.62,5.21,2.48c7.04,3.49,13.84,7.43,20.43,11.72
			c3.41,2.22,6.76,4.53,10.06,6.91c1.72,1.25,3.41,2.53,5.12,3.8c2.17,1.61-3.3-2.63,0.08,0.06c1.04,0.83,2.09,1.65,3.13,2.49
			c7.81,6.31,15.3,13,22.57,19.93c6.63,6.32,18.25,7.08,24.75,0C1099.15,208.29,1099.94,197.13,1092.86,190.39L1092.86,190.39z"/>
	</g>
</g>
</svg>

